<mxfile host="app.diagrams.net" modified="2023-08-13T07:35:44.268Z" agent="Mozilla/5.0 (Windows NT 10.0; Win64; x64) AppleWebKit/537.36 (KHTML, like Gecko) Chrome/115.0.0.0 Safari/537.36 Edg/115.0.1901.203" etag="vdPHiDls9TbJuekjFHE5" version="21.6.8" type="github" pages="3">
  <diagram id="PSbGLTb-JGzMYXCRVldx" name="Entity">
    <mxGraphModel dx="2216" dy="1714" grid="1" gridSize="10" guides="1" tooltips="1" connect="1" arrows="1" fold="1" page="1" pageScale="1" pageWidth="850" pageHeight="1100" math="0" shadow="0">
      <root>
        <mxCell id="0" />
        <mxCell id="1" parent="0" />
        <mxCell id="k3wip8fT3nSkQ_HTbVzT-5" value="" style="rounded=0;whiteSpace=wrap;html=1;fillStyle=dashed;dashed=1;" parent="1" vertex="1">
          <mxGeometry x="10" y="-90" width="370" height="460" as="geometry" />
        </mxCell>
        <mxCell id="k3wip8fT3nSkQ_HTbVzT-26" style="edgeStyle=orthogonalEdgeStyle;rounded=0;orthogonalLoop=1;jettySize=auto;html=1;exitX=1;exitY=0.5;exitDx=0;exitDy=0;" parent="1" source="k3wip8fT3nSkQ_HTbVzT-1" target="k3wip8fT3nSkQ_HTbVzT-25" edge="1">
          <mxGeometry relative="1" as="geometry">
            <mxPoint x="520" y="69.88235294117658" as="targetPoint" />
            <Array as="points">
              <mxPoint x="279" y="70" />
            </Array>
          </mxGeometry>
        </mxCell>
        <mxCell id="k3wip8fT3nSkQ_HTbVzT-32" style="edgeStyle=orthogonalEdgeStyle;rounded=0;orthogonalLoop=1;jettySize=auto;html=1;exitX=1;exitY=0.25;exitDx=0;exitDy=0;entryX=0;entryY=0.25;entryDx=0;entryDy=0;strokeWidth=4;" parent="1" source="k3wip8fT3nSkQ_HTbVzT-1" target="k3wip8fT3nSkQ_HTbVzT-33" edge="1">
          <mxGeometry relative="1" as="geometry">
            <mxPoint x="510" y="54.588235294117794" as="targetPoint" />
          </mxGeometry>
        </mxCell>
        <mxCell id="k3wip8fT3nSkQ_HTbVzT-68" value="ETH/CAN" style="edgeLabel;html=1;align=center;verticalAlign=middle;resizable=0;points=[];" parent="k3wip8fT3nSkQ_HTbVzT-32" vertex="1" connectable="0">
          <mxGeometry x="0.1777" y="-1" relative="1" as="geometry">
            <mxPoint as="offset" />
          </mxGeometry>
        </mxCell>
        <mxCell id="k3wip8fT3nSkQ_HTbVzT-1" value="传感器1-1&lt;br&gt;GPS-RTK" style="rounded=0;whiteSpace=wrap;html=1;fillColor=#dae8fc;strokeColor=#6c8ebf;" parent="1" vertex="1">
          <mxGeometry x="40" y="40" width="120" height="60" as="geometry" />
        </mxCell>
        <mxCell id="k3wip8fT3nSkQ_HTbVzT-19" style="edgeStyle=orthogonalEdgeStyle;rounded=0;orthogonalLoop=1;jettySize=auto;html=1;exitX=1;exitY=0.5;exitDx=0;exitDy=0;entryX=0;entryY=0.5;entryDx=0;entryDy=0;strokeWidth=4;" parent="1" source="k3wip8fT3nSkQ_HTbVzT-2" target="k3wip8fT3nSkQ_HTbVzT-33" edge="1">
          <mxGeometry relative="1" as="geometry">
            <mxPoint x="510" y="150" as="targetPoint" />
          </mxGeometry>
        </mxCell>
        <mxCell id="k3wip8fT3nSkQ_HTbVzT-47" style="edgeStyle=orthogonalEdgeStyle;rounded=0;orthogonalLoop=1;jettySize=auto;html=1;exitX=0.5;exitY=1;exitDx=0;exitDy=0;entryX=0;entryY=0.25;entryDx=0;entryDy=0;" parent="1" source="k3wip8fT3nSkQ_HTbVzT-2" target="k3wip8fT3nSkQ_HTbVzT-25" edge="1">
          <mxGeometry relative="1" as="geometry" />
        </mxCell>
        <mxCell id="k3wip8fT3nSkQ_HTbVzT-2" value="传感器1-2&lt;br&gt;BD-RTK" style="rounded=0;whiteSpace=wrap;html=1;fillColor=#dae8fc;strokeColor=#6c8ebf;" parent="1" vertex="1">
          <mxGeometry x="40" y="120" width="120" height="60" as="geometry" />
        </mxCell>
        <mxCell id="k3wip8fT3nSkQ_HTbVzT-29" style="edgeStyle=orthogonalEdgeStyle;rounded=0;orthogonalLoop=1;jettySize=auto;html=1;exitX=1;exitY=0.5;exitDx=0;exitDy=0;" parent="1" source="k3wip8fT3nSkQ_HTbVzT-3" target="k3wip8fT3nSkQ_HTbVzT-25" edge="1">
          <mxGeometry relative="1" as="geometry" />
        </mxCell>
        <mxCell id="k3wip8fT3nSkQ_HTbVzT-3" value="传感器2-1&lt;br&gt;机械式Lidar" style="rounded=0;whiteSpace=wrap;html=1;fillColor=#fff2cc;strokeColor=#d6b656;" parent="1" vertex="1">
          <mxGeometry x="40" y="280" width="120" height="60" as="geometry" />
        </mxCell>
        <mxCell id="k3wip8fT3nSkQ_HTbVzT-27" style="edgeStyle=orthogonalEdgeStyle;rounded=0;orthogonalLoop=1;jettySize=auto;html=1;exitX=1;exitY=0.5;exitDx=0;exitDy=0;dashed=1;" parent="1" source="k3wip8fT3nSkQ_HTbVzT-4" target="k3wip8fT3nSkQ_HTbVzT-24" edge="1">
          <mxGeometry relative="1" as="geometry" />
        </mxCell>
        <mxCell id="k3wip8fT3nSkQ_HTbVzT-4" value="传感器0-1&lt;br&gt;Camera 模组" style="rounded=0;whiteSpace=wrap;html=1;dashed=1;" parent="1" vertex="1">
          <mxGeometry x="40" y="-40" width="120" height="60" as="geometry" />
        </mxCell>
        <mxCell id="k3wip8fT3nSkQ_HTbVzT-9" style="edgeStyle=orthogonalEdgeStyle;rounded=0;orthogonalLoop=1;jettySize=auto;html=1;exitX=1;exitY=0.5;exitDx=0;exitDy=0;entryX=0;entryY=0.5;entryDx=0;entryDy=0;" parent="1" source="k3wip8fT3nSkQ_HTbVzT-7" target="k3wip8fT3nSkQ_HTbVzT-1" edge="1">
          <mxGeometry relative="1" as="geometry" />
        </mxCell>
        <mxCell id="k3wip8fT3nSkQ_HTbVzT-7" value="定位信号" style="ellipse;whiteSpace=wrap;html=1;align=center;fontStyle=4;" parent="1" vertex="1">
          <mxGeometry x="-150" y="50" width="100" height="40" as="geometry" />
        </mxCell>
        <mxCell id="k3wip8fT3nSkQ_HTbVzT-12" style="edgeStyle=orthogonalEdgeStyle;rounded=0;orthogonalLoop=1;jettySize=auto;html=1;exitX=1;exitY=0.5;exitDx=0;exitDy=0;entryX=0;entryY=0.5;entryDx=0;entryDy=0;" parent="1" source="k3wip8fT3nSkQ_HTbVzT-10" target="k3wip8fT3nSkQ_HTbVzT-2" edge="1">
          <mxGeometry relative="1" as="geometry" />
        </mxCell>
        <mxCell id="k3wip8fT3nSkQ_HTbVzT-10" value="定位信号" style="ellipse;whiteSpace=wrap;html=1;align=center;fontStyle=4;" parent="1" vertex="1">
          <mxGeometry x="-150" y="130" width="100" height="40" as="geometry" />
        </mxCell>
        <mxCell id="k3wip8fT3nSkQ_HTbVzT-15" style="edgeStyle=orthogonalEdgeStyle;rounded=0;orthogonalLoop=1;jettySize=auto;html=1;exitX=1;exitY=0.5;exitDx=0;exitDy=0;entryX=0;entryY=0.5;entryDx=0;entryDy=0;" parent="1" source="k3wip8fT3nSkQ_HTbVzT-13" target="k3wip8fT3nSkQ_HTbVzT-3" edge="1">
          <mxGeometry relative="1" as="geometry" />
        </mxCell>
        <mxCell id="k3wip8fT3nSkQ_HTbVzT-13" value="点云数据" style="ellipse;whiteSpace=wrap;html=1;align=center;fontStyle=4;" parent="1" vertex="1">
          <mxGeometry x="-142" y="290" width="100" height="40" as="geometry" />
        </mxCell>
        <mxCell id="k3wip8fT3nSkQ_HTbVzT-24" value="处理器&lt;br&gt;Orin" style="whiteSpace=wrap;html=1;align=center;dashed=1;fillColor=#0050ef;fontColor=#ffffff;strokeColor=#001DBC;" parent="1" vertex="1">
          <mxGeometry x="229" y="-40" width="100" height="60" as="geometry" />
        </mxCell>
        <mxCell id="k3wip8fT3nSkQ_HTbVzT-34" style="edgeStyle=orthogonalEdgeStyle;rounded=0;orthogonalLoop=1;jettySize=auto;html=1;exitX=1;exitY=0.5;exitDx=0;exitDy=0;entryX=0;entryY=0.75;entryDx=0;entryDy=0;strokeWidth=4;" parent="1" source="k3wip8fT3nSkQ_HTbVzT-25" target="k3wip8fT3nSkQ_HTbVzT-33" edge="1">
          <mxGeometry relative="1" as="geometry" />
        </mxCell>
        <mxCell id="k3wip8fT3nSkQ_HTbVzT-70" style="edgeStyle=orthogonalEdgeStyle;rounded=0;orthogonalLoop=1;jettySize=auto;html=1;exitX=1;exitY=0.75;exitDx=0;exitDy=0;fillColor=#d80073;strokeColor=#A50040;strokeWidth=2;dashed=1;" parent="1" source="k3wip8fT3nSkQ_HTbVzT-25" target="k3wip8fT3nSkQ_HTbVzT-61" edge="1">
          <mxGeometry relative="1" as="geometry">
            <Array as="points">
              <mxPoint x="390" y="303" />
            </Array>
          </mxGeometry>
        </mxCell>
        <mxCell id="k3wip8fT3nSkQ_HTbVzT-74" style="edgeStyle=orthogonalEdgeStyle;rounded=0;orthogonalLoop=1;jettySize=auto;html=1;exitX=0.75;exitY=1;exitDx=0;exitDy=0;entryX=0.25;entryY=1;entryDx=0;entryDy=0;" parent="1" source="k3wip8fT3nSkQ_HTbVzT-25" target="k3wip8fT3nSkQ_HTbVzT-52" edge="1">
          <mxGeometry relative="1" as="geometry">
            <Array as="points">
              <mxPoint x="320" y="340" />
              <mxPoint x="320" y="410" />
              <mxPoint x="1068" y="410" />
            </Array>
          </mxGeometry>
        </mxCell>
        <mxCell id="k3wip8fT3nSkQ_HTbVzT-25" value="处理器&lt;br&gt;智能驾驶机箱" style="whiteSpace=wrap;html=1;align=center;fillColor=#0050ef;fontColor=#ffffff;strokeColor=#001DBC;" parent="1" vertex="1">
          <mxGeometry x="229" y="190" width="100" height="150" as="geometry" />
        </mxCell>
        <mxCell id="k3wip8fT3nSkQ_HTbVzT-58" style="edgeStyle=orthogonalEdgeStyle;rounded=0;orthogonalLoop=1;jettySize=auto;html=1;exitX=1;exitY=0.75;exitDx=0;exitDy=0;entryX=-0.004;entryY=0.624;entryDx=0;entryDy=0;entryPerimeter=0;strokeWidth=4;" parent="1" source="k3wip8fT3nSkQ_HTbVzT-33" target="k3wip8fT3nSkQ_HTbVzT-52" edge="1">
          <mxGeometry relative="1" as="geometry" />
        </mxCell>
        <mxCell id="k3wip8fT3nSkQ_HTbVzT-60" style="edgeStyle=orthogonalEdgeStyle;rounded=0;orthogonalLoop=1;jettySize=auto;html=1;exitX=0.75;exitY=0;exitDx=0;exitDy=0;entryX=0.5;entryY=0;entryDx=0;entryDy=0;strokeWidth=4;" parent="1" source="k3wip8fT3nSkQ_HTbVzT-33" target="k3wip8fT3nSkQ_HTbVzT-55" edge="1">
          <mxGeometry relative="1" as="geometry">
            <Array as="points">
              <mxPoint x="735" y="-130" />
              <mxPoint x="1135" y="-130" />
            </Array>
          </mxGeometry>
        </mxCell>
        <mxCell id="k3wip8fT3nSkQ_HTbVzT-65" style="edgeStyle=orthogonalEdgeStyle;rounded=0;orthogonalLoop=1;jettySize=auto;html=1;exitX=0.75;exitY=1;exitDx=0;exitDy=0;entryX=0.5;entryY=1;entryDx=0;entryDy=0;strokeWidth=4;" parent="1" source="k3wip8fT3nSkQ_HTbVzT-33" target="k3wip8fT3nSkQ_HTbVzT-61" edge="1">
          <mxGeometry relative="1" as="geometry">
            <Array as="points">
              <mxPoint x="780" y="350" />
              <mxPoint x="780" y="650" />
              <mxPoint x="319" y="650" />
            </Array>
          </mxGeometry>
        </mxCell>
        <mxCell id="k3wip8fT3nSkQ_HTbVzT-33" value="安全计算平台&lt;br style=&quot;font-size: 20px;&quot;&gt;Duagon机箱" style="whiteSpace=wrap;html=1;align=center;fillColor=#60a917;fontColor=#ffffff;strokeColor=#2D7600;verticalAlign=middle;fontSize=20;" parent="1" vertex="1">
          <mxGeometry x="510" y="-50" width="300" height="400" as="geometry" />
        </mxCell>
        <mxCell id="k3wip8fT3nSkQ_HTbVzT-42" style="edgeStyle=orthogonalEdgeStyle;rounded=0;orthogonalLoop=1;jettySize=auto;html=1;exitX=0.5;exitY=0;exitDx=0;exitDy=0;entryX=0.25;entryY=1;entryDx=0;entryDy=0;" parent="1" source="k3wip8fT3nSkQ_HTbVzT-41" target="k3wip8fT3nSkQ_HTbVzT-25" edge="1">
          <mxGeometry relative="1" as="geometry" />
        </mxCell>
        <mxCell id="k3wip8fT3nSkQ_HTbVzT-41" value="SLAM定位" style="ellipse;whiteSpace=wrap;html=1;align=center;fontStyle=4;" parent="1" vertex="1">
          <mxGeometry x="129" y="430" width="100" height="40" as="geometry" />
        </mxCell>
        <mxCell id="k3wip8fT3nSkQ_HTbVzT-44" style="edgeStyle=orthogonalEdgeStyle;rounded=0;orthogonalLoop=1;jettySize=auto;html=1;exitX=0.5;exitY=0;exitDx=0;exitDy=0;entryX=0.5;entryY=1;entryDx=0;entryDy=0;" parent="1" source="k3wip8fT3nSkQ_HTbVzT-43" target="k3wip8fT3nSkQ_HTbVzT-25" edge="1">
          <mxGeometry relative="1" as="geometry" />
        </mxCell>
        <mxCell id="k3wip8fT3nSkQ_HTbVzT-43" value="融合定位" style="ellipse;whiteSpace=wrap;html=1;align=center;fontStyle=4;" parent="1" vertex="1">
          <mxGeometry x="260" y="430" width="100" height="40" as="geometry" />
        </mxCell>
        <mxCell id="k3wip8fT3nSkQ_HTbVzT-46" style="edgeStyle=orthogonalEdgeStyle;rounded=0;orthogonalLoop=1;jettySize=auto;html=1;exitX=0.5;exitY=0;exitDx=0;exitDy=0;entryX=0.25;entryY=1;entryDx=0;entryDy=0;" parent="1" source="k3wip8fT3nSkQ_HTbVzT-45" target="k3wip8fT3nSkQ_HTbVzT-33" edge="1">
          <mxGeometry relative="1" as="geometry" />
        </mxCell>
        <mxCell id="k3wip8fT3nSkQ_HTbVzT-45" value="循迹跟随控制" style="ellipse;whiteSpace=wrap;html=1;align=center;fontStyle=4;" parent="1" vertex="1">
          <mxGeometry x="520" y="430" width="100" height="40" as="geometry" />
        </mxCell>
        <mxCell id="k3wip8fT3nSkQ_HTbVzT-49" style="edgeStyle=orthogonalEdgeStyle;rounded=0;orthogonalLoop=1;jettySize=auto;html=1;exitX=0.5;exitY=0;exitDx=0;exitDy=0;" parent="1" source="k3wip8fT3nSkQ_HTbVzT-48" target="k3wip8fT3nSkQ_HTbVzT-33" edge="1">
          <mxGeometry relative="1" as="geometry" />
        </mxCell>
        <mxCell id="k3wip8fT3nSkQ_HTbVzT-48" value="失效安全保护" style="ellipse;whiteSpace=wrap;html=1;align=center;fontStyle=4;" parent="1" vertex="1">
          <mxGeometry x="670" y="430" width="100" height="40" as="geometry" />
        </mxCell>
        <mxCell id="k3wip8fT3nSkQ_HTbVzT-51" style="edgeStyle=orthogonalEdgeStyle;rounded=0;orthogonalLoop=1;jettySize=auto;html=1;exitX=0.5;exitY=1;exitDx=0;exitDy=0;entryX=0.25;entryY=0;entryDx=0;entryDy=0;" parent="1" source="k3wip8fT3nSkQ_HTbVzT-50" target="k3wip8fT3nSkQ_HTbVzT-33" edge="1">
          <mxGeometry relative="1" as="geometry" />
        </mxCell>
        <mxCell id="k3wip8fT3nSkQ_HTbVzT-50" value="决策安全" style="ellipse;whiteSpace=wrap;html=1;align=center;fontStyle=4;" parent="1" vertex="1">
          <mxGeometry x="460" y="-180" width="100" height="40" as="geometry" />
        </mxCell>
        <mxCell id="k3wip8fT3nSkQ_HTbVzT-59" style="edgeStyle=orthogonalEdgeStyle;rounded=0;orthogonalLoop=1;jettySize=auto;html=1;exitX=0.5;exitY=0;exitDx=0;exitDy=0;entryX=1;entryY=0.25;entryDx=0;entryDy=0;strokeWidth=4;" parent="1" source="k3wip8fT3nSkQ_HTbVzT-52" target="k3wip8fT3nSkQ_HTbVzT-33" edge="1">
          <mxGeometry relative="1" as="geometry" />
        </mxCell>
        <mxCell id="k3wip8fT3nSkQ_HTbVzT-52" value="执行器2&lt;br style=&quot;font-size: 15px;&quot;&gt;无轨导向-第一轴" style="whiteSpace=wrap;html=1;align=center;fontSize=15;fillColor=#d5e8d4;strokeColor=#82b366;" parent="1" vertex="1">
          <mxGeometry x="1000" y="150" width="270" height="210" as="geometry" />
        </mxCell>
        <mxCell id="k3wip8fT3nSkQ_HTbVzT-53" value="" style="endArrow=none;dashed=1;html=1;rounded=0;fillColor=#d80073;strokeColor=#A50040;strokeWidth=3;" parent="1" edge="1">
          <mxGeometry width="50" height="50" relative="1" as="geometry">
            <mxPoint x="440" y="750" as="sourcePoint" />
            <mxPoint x="440" y="-200" as="targetPoint" />
          </mxGeometry>
        </mxCell>
        <mxCell id="k3wip8fT3nSkQ_HTbVzT-54" value="" style="endArrow=none;dashed=1;html=1;rounded=0;fillColor=#d80073;strokeColor=#A50040;strokeWidth=3;" parent="1" edge="1">
          <mxGeometry width="50" height="50" relative="1" as="geometry">
            <mxPoint x="900" y="750" as="sourcePoint" />
            <mxPoint x="890" y="-190" as="targetPoint" />
          </mxGeometry>
        </mxCell>
        <mxCell id="k3wip8fT3nSkQ_HTbVzT-55" value="执行器1&lt;br style=&quot;font-size: 15px;&quot;&gt;安全制动系统" style="whiteSpace=wrap;html=1;align=center;fontSize=15;fillColor=#60a917;fontColor=#ffffff;strokeColor=#2D7600;" parent="1" vertex="1">
          <mxGeometry x="1000" y="-90" width="270" height="80" as="geometry" />
        </mxCell>
        <mxCell id="k3wip8fT3nSkQ_HTbVzT-57" style="edgeStyle=orthogonalEdgeStyle;rounded=0;orthogonalLoop=1;jettySize=auto;html=1;exitX=0.5;exitY=1;exitDx=0;exitDy=0;" parent="1" source="k3wip8fT3nSkQ_HTbVzT-56" target="k3wip8fT3nSkQ_HTbVzT-33" edge="1">
          <mxGeometry relative="1" as="geometry" />
        </mxCell>
        <mxCell id="k3wip8fT3nSkQ_HTbVzT-56" value="循迹模式切换" style="ellipse;whiteSpace=wrap;html=1;align=center;fontStyle=4;" parent="1" vertex="1">
          <mxGeometry x="670" y="-180" width="100" height="40" as="geometry" />
        </mxCell>
        <mxCell id="k3wip8fT3nSkQ_HTbVzT-64" style="edgeStyle=orthogonalEdgeStyle;rounded=0;orthogonalLoop=1;jettySize=auto;html=1;exitX=1;exitY=0.5;exitDx=0;exitDy=0;entryX=0.001;entryY=0.88;entryDx=0;entryDy=0;entryPerimeter=0;strokeWidth=4;" parent="1" source="k3wip8fT3nSkQ_HTbVzT-61" target="k3wip8fT3nSkQ_HTbVzT-33" edge="1">
          <mxGeometry relative="1" as="geometry" />
        </mxCell>
        <mxCell id="k3wip8fT3nSkQ_HTbVzT-61" value="整车网络-VCMS" style="whiteSpace=wrap;html=1;align=center;fontSize=15;fillColor=#d5e8d4;strokeColor=#82b366;" parent="1" vertex="1">
          <mxGeometry x="229" y="540" width="180" height="70" as="geometry" />
        </mxCell>
        <mxCell id="k3wip8fT3nSkQ_HTbVzT-63" style="edgeStyle=orthogonalEdgeStyle;rounded=0;orthogonalLoop=1;jettySize=auto;html=1;exitX=1;exitY=0.5;exitDx=0;exitDy=0;entryX=0;entryY=0.5;entryDx=0;entryDy=0;" parent="1" source="k3wip8fT3nSkQ_HTbVzT-62" target="k3wip8fT3nSkQ_HTbVzT-61" edge="1">
          <mxGeometry relative="1" as="geometry" />
        </mxCell>
        <mxCell id="k3wip8fT3nSkQ_HTbVzT-71" style="edgeStyle=orthogonalEdgeStyle;rounded=0;orthogonalLoop=1;jettySize=auto;html=1;exitX=0.5;exitY=1;exitDx=0;exitDy=0;entryX=0.412;entryY=1.008;entryDx=0;entryDy=0;entryPerimeter=0;strokeColor=#A50040;fillColor=#d80073;strokeWidth=2;dashed=1;" parent="1" source="k3wip8fT3nSkQ_HTbVzT-62" target="k3wip8fT3nSkQ_HTbVzT-33" edge="1">
          <mxGeometry relative="1" as="geometry" />
        </mxCell>
        <mxCell id="k3wip8fT3nSkQ_HTbVzT-62" value="信号系统" style="whiteSpace=wrap;html=1;align=center;fontSize=15;fillColor=#60a917;fontColor=#ffffff;strokeColor=#2D7600;" parent="1" vertex="1">
          <mxGeometry y="540" width="170" height="70" as="geometry" />
        </mxCell>
        <mxCell id="k3wip8fT3nSkQ_HTbVzT-67" style="edgeStyle=orthogonalEdgeStyle;rounded=0;orthogonalLoop=1;jettySize=auto;html=1;exitX=0.5;exitY=1;exitDx=0;exitDy=0;entryX=0.312;entryY=0.006;entryDx=0;entryDy=0;entryPerimeter=0;" parent="1" source="k3wip8fT3nSkQ_HTbVzT-66" target="k3wip8fT3nSkQ_HTbVzT-33" edge="1">
          <mxGeometry relative="1" as="geometry" />
        </mxCell>
        <mxCell id="k3wip8fT3nSkQ_HTbVzT-66" value="道岔选择" style="ellipse;whiteSpace=wrap;html=1;align=center;fontStyle=4;" parent="1" vertex="1">
          <mxGeometry x="570" y="-180" width="100" height="40" as="geometry" />
        </mxCell>
      </root>
    </mxGraphModel>
  </diagram>
  <diagram id="H9GjOlIk_Rh9UV2NHRs_" name="数据流">
    <mxGraphModel dx="1195" dy="1638" grid="1" gridSize="10" guides="1" tooltips="1" connect="1" arrows="1" fold="1" page="1" pageScale="1" pageWidth="850" pageHeight="1100" math="0" shadow="0">
      <root>
        <mxCell id="0" />
        <mxCell id="1" parent="0" />
        <mxCell id="CKitpAn34eTJPyH5BuWE-4" style="edgeStyle=orthogonalEdgeStyle;rounded=0;orthogonalLoop=1;jettySize=auto;html=1;exitX=1;exitY=0.5;exitDx=0;exitDy=0;entryX=0;entryY=0.25;entryDx=0;entryDy=0;" edge="1" parent="1" source="BZtlhnFzKGFEZJdJf1P--1" target="CKitpAn34eTJPyH5BuWE-1">
          <mxGeometry relative="1" as="geometry" />
        </mxCell>
        <mxCell id="BZtlhnFzKGFEZJdJf1P--1" value="点云数据" style="rounded=0;whiteSpace=wrap;html=1;" parent="1" vertex="1">
          <mxGeometry y="80" width="120" height="60" as="geometry" />
        </mxCell>
        <mxCell id="CKitpAn34eTJPyH5BuWE-7" style="edgeStyle=orthogonalEdgeStyle;rounded=0;orthogonalLoop=1;jettySize=auto;html=1;exitX=1;exitY=0.5;exitDx=0;exitDy=0;entryX=0;entryY=0.25;entryDx=0;entryDy=0;" edge="1" parent="1" source="uz_q0G_aVqhpZY-xAXSW-1" target="CKitpAn34eTJPyH5BuWE-5">
          <mxGeometry relative="1" as="geometry" />
        </mxCell>
        <mxCell id="uz_q0G_aVqhpZY-xAXSW-1" value="GPS/RTK -1" style="rounded=0;whiteSpace=wrap;html=1;" vertex="1" parent="1">
          <mxGeometry y="200" width="120" height="60" as="geometry" />
        </mxCell>
        <mxCell id="CKitpAn34eTJPyH5BuWE-25" style="edgeStyle=orthogonalEdgeStyle;rounded=0;orthogonalLoop=1;jettySize=auto;html=1;exitX=1;exitY=0.5;exitDx=0;exitDy=0;entryX=0;entryY=0.25;entryDx=0;entryDy=0;" edge="1" parent="1" source="uz_q0G_aVqhpZY-xAXSW-2" target="CKitpAn34eTJPyH5BuWE-21">
          <mxGeometry relative="1" as="geometry" />
        </mxCell>
        <mxCell id="uz_q0G_aVqhpZY-xAXSW-2" value="GPS/RTK -2" style="rounded=0;whiteSpace=wrap;html=1;" vertex="1" parent="1">
          <mxGeometry y="320" width="120" height="60" as="geometry" />
        </mxCell>
        <mxCell id="SrfplcpbmUxofHk9KIb3-17" style="edgeStyle=orthogonalEdgeStyle;rounded=0;orthogonalLoop=1;jettySize=auto;html=1;exitX=1;exitY=0.5;exitDx=0;exitDy=0;entryX=0.031;entryY=0.053;entryDx=0;entryDy=0;entryPerimeter=0;dashed=1;" edge="1" parent="1" source="uz_q0G_aVqhpZY-xAXSW-3" target="o8_byREZAqRba5Iupg0P-94">
          <mxGeometry relative="1" as="geometry" />
        </mxCell>
        <mxCell id="uz_q0G_aVqhpZY-xAXSW-3" value="视觉数据" style="rounded=0;whiteSpace=wrap;html=1;dashed=1;" vertex="1" parent="1">
          <mxGeometry y="-150" width="120" height="60" as="geometry" />
        </mxCell>
        <mxCell id="SrfplcpbmUxofHk9KIb3-6" style="edgeStyle=orthogonalEdgeStyle;rounded=0;orthogonalLoop=1;jettySize=auto;html=1;exitX=0.5;exitY=0;exitDx=0;exitDy=0;entryX=0.5;entryY=0;entryDx=0;entryDy=0;" edge="1" parent="1" source="o8_byREZAqRba5Iupg0P-1" target="1_bBR38_FuNowLDQo-79-5">
          <mxGeometry relative="1" as="geometry" />
        </mxCell>
        <mxCell id="SrfplcpbmUxofHk9KIb3-8" style="edgeStyle=orthogonalEdgeStyle;rounded=0;orthogonalLoop=1;jettySize=auto;html=1;exitX=0.5;exitY=1;exitDx=0;exitDy=0;entryX=0.5;entryY=0;entryDx=0;entryDy=0;" edge="1" parent="1" source="o8_byREZAqRba5Iupg0P-1" target="1_bBR38_FuNowLDQo-79-7">
          <mxGeometry relative="1" as="geometry" />
        </mxCell>
        <mxCell id="SrfplcpbmUxofHk9KIb3-9" style="edgeStyle=orthogonalEdgeStyle;rounded=0;orthogonalLoop=1;jettySize=auto;html=1;exitX=0.25;exitY=1;exitDx=0;exitDy=0;entryX=0.25;entryY=0;entryDx=0;entryDy=0;" edge="1" parent="1" source="o8_byREZAqRba5Iupg0P-1" target="1_bBR38_FuNowLDQo-79-7">
          <mxGeometry relative="1" as="geometry">
            <Array as="points">
              <mxPoint x="1200" y="540" />
              <mxPoint x="1015" y="540" />
            </Array>
          </mxGeometry>
        </mxCell>
        <mxCell id="o8_byREZAqRba5Iupg0P-1" value="无轨导向-第一轴&lt;br&gt;转角执行" style="rounded=0;whiteSpace=wrap;html=1;" vertex="1" parent="1">
          <mxGeometry x="1170" y="436" width="120" height="60" as="geometry" />
        </mxCell>
        <mxCell id="o8_byREZAqRba5Iupg0P-2" value="制动系统&lt;br&gt;安全制动" style="rounded=0;whiteSpace=wrap;html=1;" vertex="1" parent="1">
          <mxGeometry x="1170" y="676" width="120" height="60" as="geometry" />
        </mxCell>
        <mxCell id="SrfplcpbmUxofHk9KIb3-16" style="edgeStyle=orthogonalEdgeStyle;rounded=0;orthogonalLoop=1;jettySize=auto;html=1;exitX=1;exitY=0.25;exitDx=0;exitDy=0;entryX=1;entryY=0.25;entryDx=0;entryDy=0;dashed=1;" edge="1" parent="1" source="o8_byREZAqRba5Iupg0P-93" target="1_bBR38_FuNowLDQo-79-5">
          <mxGeometry relative="1" as="geometry" />
        </mxCell>
        <mxCell id="o8_byREZAqRba5Iupg0P-93" value="0.1" style="swimlane;html=1;fontStyle=0;childLayout=stackLayout;horizontal=1;startSize=26;fillColor=#e0e0e0;horizontalStack=0;resizeParent=1;resizeLast=0;collapsible=1;marginBottom=0;swimlaneFillColor=#ffffff;align=center;rounded=1;shadow=0;comic=0;labelBackgroundColor=none;strokeWidth=1;fontFamily=Verdana;fontSize=12" vertex="1" parent="1">
          <mxGeometry x="200" y="-146" width="140" height="52" as="geometry" />
        </mxCell>
        <mxCell id="o8_byREZAqRba5Iupg0P-94" value="视觉循迹线感知" style="text;html=1;strokeColor=none;fillColor=none;spacingLeft=4;spacingRight=4;whiteSpace=wrap;overflow=hidden;rotatable=0;points=[[0,0.5],[1,0.5]];portConstraint=eastwest;align=center;" vertex="1" parent="o8_byREZAqRba5Iupg0P-93">
          <mxGeometry y="26" width="140" height="26" as="geometry" />
        </mxCell>
        <mxCell id="CKitpAn34eTJPyH5BuWE-11" value="" style="edgeStyle=orthogonalEdgeStyle;rounded=0;orthogonalLoop=1;jettySize=auto;html=1;entryX=0.5;entryY=0;entryDx=0;entryDy=0;exitX=0.5;exitY=1;exitDx=0;exitDy=0;" edge="1" parent="1" source="1_bBR38_FuNowLDQo-79-24" target="CKitpAn34eTJPyH5BuWE-8">
          <mxGeometry relative="1" as="geometry">
            <mxPoint x="490" as="sourcePoint" />
          </mxGeometry>
        </mxCell>
        <mxCell id="CKitpAn34eTJPyH5BuWE-12" style="edgeStyle=orthogonalEdgeStyle;rounded=0;orthogonalLoop=1;jettySize=auto;html=1;exitX=1;exitY=0.5;exitDx=0;exitDy=0;entryX=0;entryY=0.25;entryDx=0;entryDy=0;" edge="1" parent="1" source="CKitpAn34eTJPyH5BuWE-1" target="CKitpAn34eTJPyH5BuWE-8">
          <mxGeometry relative="1" as="geometry" />
        </mxCell>
        <mxCell id="CKitpAn34eTJPyH5BuWE-1" value="1.1" style="swimlane;html=1;fontStyle=0;childLayout=stackLayout;horizontal=1;startSize=26;fillColor=#e0e0e0;horizontalStack=0;resizeParent=1;resizeLast=0;collapsible=1;marginBottom=0;swimlaneFillColor=#ffffff;align=center;rounded=1;shadow=0;comic=0;labelBackgroundColor=none;strokeWidth=1;fontFamily=Verdana;fontSize=12" vertex="1" parent="1">
          <mxGeometry x="197.5" y="84" width="140" height="52" as="geometry" />
        </mxCell>
        <mxCell id="CKitpAn34eTJPyH5BuWE-2" value="点云数据处理" style="text;html=1;strokeColor=none;fillColor=none;spacingLeft=4;spacingRight=4;whiteSpace=wrap;overflow=hidden;rotatable=0;points=[[0,0.5],[1,0.5]];portConstraint=eastwest;align=center;" vertex="1" parent="CKitpAn34eTJPyH5BuWE-1">
          <mxGeometry y="26" width="140" height="26" as="geometry" />
        </mxCell>
        <mxCell id="CKitpAn34eTJPyH5BuWE-15" style="edgeStyle=orthogonalEdgeStyle;rounded=0;orthogonalLoop=1;jettySize=auto;html=1;exitX=1;exitY=0.5;exitDx=0;exitDy=0;entryX=0;entryY=0.25;entryDx=0;entryDy=0;" edge="1" parent="1" source="CKitpAn34eTJPyH5BuWE-5" target="CKitpAn34eTJPyH5BuWE-13">
          <mxGeometry relative="1" as="geometry" />
        </mxCell>
        <mxCell id="CKitpAn34eTJPyH5BuWE-5" value="2.1-1" style="swimlane;html=1;fontStyle=0;childLayout=stackLayout;horizontal=1;startSize=26;fillColor=#e0e0e0;horizontalStack=0;resizeParent=1;resizeLast=0;collapsible=1;marginBottom=0;swimlaneFillColor=#ffffff;align=center;rounded=1;shadow=0;comic=0;labelBackgroundColor=none;strokeWidth=1;fontFamily=Verdana;fontSize=12" vertex="1" parent="1">
          <mxGeometry x="197.5" y="204" width="140" height="52" as="geometry" />
        </mxCell>
        <mxCell id="CKitpAn34eTJPyH5BuWE-6" value="GNSS 信号解析" style="text;html=1;strokeColor=none;fillColor=none;spacingLeft=4;spacingRight=4;whiteSpace=wrap;overflow=hidden;rotatable=0;points=[[0,0.5],[1,0.5]];portConstraint=eastwest;align=center;" vertex="1" parent="CKitpAn34eTJPyH5BuWE-5">
          <mxGeometry y="26" width="140" height="26" as="geometry" />
        </mxCell>
        <mxCell id="CKitpAn34eTJPyH5BuWE-18" style="edgeStyle=orthogonalEdgeStyle;rounded=0;orthogonalLoop=1;jettySize=auto;html=1;exitX=1;exitY=0.25;exitDx=0;exitDy=0;entryX=0.5;entryY=0;entryDx=0;entryDy=0;" edge="1" parent="1" source="CKitpAn34eTJPyH5BuWE-8" target="CKitpAn34eTJPyH5BuWE-16">
          <mxGeometry relative="1" as="geometry" />
        </mxCell>
        <mxCell id="CKitpAn34eTJPyH5BuWE-28" style="edgeStyle=orthogonalEdgeStyle;rounded=0;orthogonalLoop=1;jettySize=auto;html=1;exitX=1;exitY=0.25;exitDx=0;exitDy=0;entryX=1;entryY=0.25;entryDx=0;entryDy=0;" edge="1" parent="1" source="CKitpAn34eTJPyH5BuWE-8" target="CKitpAn34eTJPyH5BuWE-26">
          <mxGeometry relative="1" as="geometry" />
        </mxCell>
        <mxCell id="CKitpAn34eTJPyH5BuWE-8" value="1.2" style="swimlane;html=1;fontStyle=0;childLayout=stackLayout;horizontal=1;startSize=26;fillColor=#e0e0e0;horizontalStack=0;resizeParent=1;resizeLast=0;collapsible=1;marginBottom=0;swimlaneFillColor=#ffffff;align=center;rounded=1;shadow=0;comic=0;labelBackgroundColor=none;strokeWidth=1;fontFamily=Verdana;fontSize=12" vertex="1" parent="1">
          <mxGeometry x="420" y="84" width="140" height="52" as="geometry" />
        </mxCell>
        <mxCell id="CKitpAn34eTJPyH5BuWE-9" value="点云数据匹配" style="text;html=1;strokeColor=none;fillColor=none;spacingLeft=4;spacingRight=4;whiteSpace=wrap;overflow=hidden;rotatable=0;points=[[0,0.5],[1,0.5]];portConstraint=eastwest;align=center;" vertex="1" parent="CKitpAn34eTJPyH5BuWE-8">
          <mxGeometry y="26" width="140" height="26" as="geometry" />
        </mxCell>
        <mxCell id="CKitpAn34eTJPyH5BuWE-19" style="edgeStyle=orthogonalEdgeStyle;rounded=0;orthogonalLoop=1;jettySize=auto;html=1;exitX=0.75;exitY=0;exitDx=0;exitDy=0;entryX=0;entryY=0.25;entryDx=0;entryDy=0;" edge="1" parent="1" source="CKitpAn34eTJPyH5BuWE-13" target="CKitpAn34eTJPyH5BuWE-16">
          <mxGeometry relative="1" as="geometry">
            <Array as="points">
              <mxPoint x="523" y="160" />
              <mxPoint x="650" y="160" />
            </Array>
          </mxGeometry>
        </mxCell>
        <mxCell id="1_bBR38_FuNowLDQo-79-22" style="edgeStyle=orthogonalEdgeStyle;rounded=0;orthogonalLoop=1;jettySize=auto;html=1;exitX=1;exitY=0.25;exitDx=0;exitDy=0;entryX=0.25;entryY=0;entryDx=0;entryDy=0;" edge="1" parent="1" source="CKitpAn34eTJPyH5BuWE-13" target="1_bBR38_FuNowLDQo-79-1">
          <mxGeometry relative="1" as="geometry" />
        </mxCell>
        <mxCell id="CKitpAn34eTJPyH5BuWE-13" value="2.2-1" style="swimlane;html=1;fontStyle=0;childLayout=stackLayout;horizontal=1;startSize=26;fillColor=#e0e0e0;horizontalStack=0;resizeParent=1;resizeLast=0;collapsible=1;marginBottom=0;swimlaneFillColor=#ffffff;align=center;rounded=1;shadow=0;comic=0;labelBackgroundColor=none;strokeWidth=1;fontFamily=Verdana;fontSize=12" vertex="1" parent="1">
          <mxGeometry x="417.5" y="204" width="140" height="52" as="geometry" />
        </mxCell>
        <mxCell id="CKitpAn34eTJPyH5BuWE-14" value="GNSS 信息处理与转换" style="text;html=1;strokeColor=none;fillColor=none;spacingLeft=4;spacingRight=4;whiteSpace=wrap;overflow=hidden;rotatable=0;points=[[0,0.5],[1,0.5]];portConstraint=eastwest;align=center;" vertex="1" parent="CKitpAn34eTJPyH5BuWE-13">
          <mxGeometry y="26" width="140" height="26" as="geometry" />
        </mxCell>
        <mxCell id="CKitpAn34eTJPyH5BuWE-16" value="3.1-1" style="swimlane;html=1;fontStyle=0;childLayout=stackLayout;horizontal=1;startSize=26;fillColor=#e0e0e0;horizontalStack=0;resizeParent=1;resizeLast=0;collapsible=1;marginBottom=0;swimlaneFillColor=#ffffff;align=center;rounded=1;shadow=0;comic=0;labelBackgroundColor=none;strokeWidth=1;fontFamily=Verdana;fontSize=12" vertex="1" parent="1">
          <mxGeometry x="778" y="148" width="140" height="52" as="geometry" />
        </mxCell>
        <mxCell id="CKitpAn34eTJPyH5BuWE-17" value="融合定位处理" style="text;html=1;strokeColor=none;fillColor=none;spacingLeft=4;spacingRight=4;whiteSpace=wrap;overflow=hidden;rotatable=0;points=[[0,0.5],[1,0.5]];portConstraint=eastwest;align=center;" vertex="1" parent="CKitpAn34eTJPyH5BuWE-16">
          <mxGeometry y="26" width="140" height="26" as="geometry" />
        </mxCell>
        <mxCell id="CKitpAn34eTJPyH5BuWE-20" style="edgeStyle=orthogonalEdgeStyle;rounded=0;orthogonalLoop=1;jettySize=auto;html=1;exitX=1;exitY=0.5;exitDx=0;exitDy=0;entryX=0;entryY=0.25;entryDx=0;entryDy=0;" edge="1" parent="1" source="CKitpAn34eTJPyH5BuWE-21" target="CKitpAn34eTJPyH5BuWE-23">
          <mxGeometry relative="1" as="geometry" />
        </mxCell>
        <mxCell id="CKitpAn34eTJPyH5BuWE-21" value="2.1-2" style="swimlane;html=1;fontStyle=0;childLayout=stackLayout;horizontal=1;startSize=26;fillColor=#e0e0e0;horizontalStack=0;resizeParent=1;resizeLast=0;collapsible=1;marginBottom=0;swimlaneFillColor=#ffffff;align=center;rounded=1;shadow=0;comic=0;labelBackgroundColor=none;strokeWidth=1;fontFamily=Verdana;fontSize=12" vertex="1" parent="1">
          <mxGeometry x="200" y="324" width="140" height="52" as="geometry" />
        </mxCell>
        <mxCell id="CKitpAn34eTJPyH5BuWE-22" value="GNSS 信号解析" style="text;html=1;strokeColor=none;fillColor=none;spacingLeft=4;spacingRight=4;whiteSpace=wrap;overflow=hidden;rotatable=0;points=[[0,0.5],[1,0.5]];portConstraint=eastwest;align=center;" vertex="1" parent="CKitpAn34eTJPyH5BuWE-21">
          <mxGeometry y="26" width="140" height="26" as="geometry" />
        </mxCell>
        <mxCell id="CKitpAn34eTJPyH5BuWE-29" style="edgeStyle=orthogonalEdgeStyle;rounded=0;orthogonalLoop=1;jettySize=auto;html=1;exitX=1;exitY=0.25;exitDx=0;exitDy=0;entryX=0;entryY=0.25;entryDx=0;entryDy=0;" edge="1" parent="1" source="CKitpAn34eTJPyH5BuWE-23" target="CKitpAn34eTJPyH5BuWE-26">
          <mxGeometry relative="1" as="geometry">
            <Array as="points">
              <mxPoint x="700" y="337" />
              <mxPoint x="700" y="303" />
            </Array>
          </mxGeometry>
        </mxCell>
        <mxCell id="CKitpAn34eTJPyH5BuWE-23" value="2.2-2" style="swimlane;html=1;fontStyle=0;childLayout=stackLayout;horizontal=1;startSize=26;fillColor=#e0e0e0;horizontalStack=0;resizeParent=1;resizeLast=0;collapsible=1;marginBottom=0;swimlaneFillColor=#ffffff;align=center;rounded=1;shadow=0;comic=0;labelBackgroundColor=none;strokeWidth=1;fontFamily=Verdana;fontSize=12" vertex="1" parent="1">
          <mxGeometry x="420" y="324" width="140" height="52" as="geometry" />
        </mxCell>
        <mxCell id="CKitpAn34eTJPyH5BuWE-24" value="GNSS 信息处理与转换" style="text;html=1;strokeColor=none;fillColor=none;spacingLeft=4;spacingRight=4;whiteSpace=wrap;overflow=hidden;rotatable=0;points=[[0,0.5],[1,0.5]];portConstraint=eastwest;align=center;" vertex="1" parent="CKitpAn34eTJPyH5BuWE-23">
          <mxGeometry y="26" width="140" height="26" as="geometry" />
        </mxCell>
        <mxCell id="CKitpAn34eTJPyH5BuWE-26" value="3.1-2" style="swimlane;html=1;fontStyle=0;childLayout=stackLayout;horizontal=1;startSize=26;fillColor=#e0e0e0;horizontalStack=0;resizeParent=1;resizeLast=0;collapsible=1;marginBottom=0;swimlaneFillColor=#ffffff;align=center;rounded=1;shadow=0;comic=0;labelBackgroundColor=none;strokeWidth=1;fontFamily=Verdana;fontSize=12" vertex="1" parent="1">
          <mxGeometry x="778" y="290" width="140" height="52" as="geometry" />
        </mxCell>
        <mxCell id="CKitpAn34eTJPyH5BuWE-27" value="融合定位处理" style="text;html=1;strokeColor=none;fillColor=none;spacingLeft=4;spacingRight=4;whiteSpace=wrap;overflow=hidden;rotatable=0;points=[[0,0.5],[1,0.5]];portConstraint=eastwest;align=center;" vertex="1" parent="CKitpAn34eTJPyH5BuWE-26">
          <mxGeometry y="26" width="140" height="26" as="geometry" />
        </mxCell>
        <mxCell id="CKitpAn34eTJPyH5BuWE-30" value="4.1" style="swimlane;html=1;fontStyle=0;childLayout=stackLayout;horizontal=1;startSize=26;fillColor=#e0e0e0;horizontalStack=0;resizeParent=1;resizeLast=0;collapsible=1;marginBottom=0;swimlaneFillColor=#ffffff;align=center;rounded=1;shadow=0;comic=0;labelBackgroundColor=none;strokeWidth=1;fontFamily=Verdana;fontSize=12" vertex="1" parent="1">
          <mxGeometry x="417.5" y="440" width="140" height="52" as="geometry" />
        </mxCell>
        <mxCell id="CKitpAn34eTJPyH5BuWE-31" value="决策安全" style="text;html=1;strokeColor=none;fillColor=none;spacingLeft=4;spacingRight=4;whiteSpace=wrap;overflow=hidden;rotatable=0;points=[[0,0.5],[1,0.5]];portConstraint=eastwest;align=center;" vertex="1" parent="CKitpAn34eTJPyH5BuWE-30">
          <mxGeometry y="26" width="140" height="26" as="geometry" />
        </mxCell>
        <mxCell id="SrfplcpbmUxofHk9KIb3-4" style="edgeStyle=orthogonalEdgeStyle;rounded=0;orthogonalLoop=1;jettySize=auto;html=1;exitX=1;exitY=0.5;exitDx=0;exitDy=0;entryX=0;entryY=0.25;entryDx=0;entryDy=0;" edge="1" parent="1" source="1_bBR38_FuNowLDQo-79-1" target="1_bBR38_FuNowLDQo-79-5">
          <mxGeometry relative="1" as="geometry" />
        </mxCell>
        <mxCell id="1_bBR38_FuNowLDQo-79-1" value="4.2" style="swimlane;html=1;fontStyle=0;childLayout=stackLayout;horizontal=1;startSize=26;fillColor=#e0e0e0;horizontalStack=0;resizeParent=1;resizeLast=0;collapsible=1;marginBottom=0;swimlaneFillColor=#ffffff;align=center;rounded=1;shadow=0;comic=0;labelBackgroundColor=none;strokeWidth=1;fontFamily=Verdana;fontSize=12" vertex="1" parent="1">
          <mxGeometry x="610" y="440" width="140" height="52" as="geometry" />
        </mxCell>
        <mxCell id="1_bBR38_FuNowLDQo-79-2" value="循迹模式切换" style="text;html=1;strokeColor=none;fillColor=none;spacingLeft=4;spacingRight=4;whiteSpace=wrap;overflow=hidden;rotatable=0;points=[[0,0.5],[1,0.5]];portConstraint=eastwest;align=center;" vertex="1" parent="1_bBR38_FuNowLDQo-79-1">
          <mxGeometry y="26" width="140" height="26" as="geometry" />
        </mxCell>
        <mxCell id="1_bBR38_FuNowLDQo-79-3" value="4.3" style="swimlane;html=1;fontStyle=0;childLayout=stackLayout;horizontal=1;startSize=26;fillColor=#e0e0e0;horizontalStack=0;resizeParent=1;resizeLast=0;collapsible=1;marginBottom=0;swimlaneFillColor=#ffffff;align=center;rounded=1;shadow=0;comic=0;labelBackgroundColor=none;strokeWidth=1;fontFamily=Verdana;fontSize=12" vertex="1" parent="1">
          <mxGeometry x="417.5" y="540" width="140" height="52" as="geometry" />
        </mxCell>
        <mxCell id="1_bBR38_FuNowLDQo-79-4" value="道岔选择" style="text;html=1;strokeColor=none;fillColor=none;spacingLeft=4;spacingRight=4;whiteSpace=wrap;overflow=hidden;rotatable=0;points=[[0,0.5],[1,0.5]];portConstraint=eastwest;align=center;" vertex="1" parent="1_bBR38_FuNowLDQo-79-3">
          <mxGeometry y="26" width="140" height="26" as="geometry" />
        </mxCell>
        <mxCell id="SrfplcpbmUxofHk9KIb3-5" style="edgeStyle=orthogonalEdgeStyle;rounded=0;orthogonalLoop=1;jettySize=auto;html=1;exitX=1;exitY=0.5;exitDx=0;exitDy=0;entryX=0;entryY=0.5;entryDx=0;entryDy=0;" edge="1" parent="1" source="1_bBR38_FuNowLDQo-79-5" target="o8_byREZAqRba5Iupg0P-1">
          <mxGeometry relative="1" as="geometry" />
        </mxCell>
        <mxCell id="1_bBR38_FuNowLDQo-79-5" value="4.4" style="swimlane;html=1;fontStyle=0;childLayout=stackLayout;horizontal=1;startSize=26;fillColor=#e0e0e0;horizontalStack=0;resizeParent=1;resizeLast=0;collapsible=1;marginBottom=0;swimlaneFillColor=#ffffff;align=center;rounded=1;shadow=0;comic=0;labelBackgroundColor=none;strokeWidth=1;fontFamily=Verdana;fontSize=12" vertex="1" parent="1">
          <mxGeometry x="820" y="440" width="140" height="52" as="geometry" />
        </mxCell>
        <mxCell id="1_bBR38_FuNowLDQo-79-6" value="循迹跟随控制" style="text;html=1;strokeColor=none;fillColor=none;spacingLeft=4;spacingRight=4;whiteSpace=wrap;overflow=hidden;rotatable=0;points=[[0,0.5],[1,0.5]];portConstraint=eastwest;align=center;" vertex="1" parent="1_bBR38_FuNowLDQo-79-5">
          <mxGeometry y="26" width="140" height="26" as="geometry" />
        </mxCell>
        <mxCell id="SrfplcpbmUxofHk9KIb3-15" style="edgeStyle=orthogonalEdgeStyle;rounded=0;orthogonalLoop=1;jettySize=auto;html=1;exitX=1;exitY=0.5;exitDx=0;exitDy=0;entryX=0;entryY=0.5;entryDx=0;entryDy=0;" edge="1" parent="1" source="1_bBR38_FuNowLDQo-79-7" target="o8_byREZAqRba5Iupg0P-2">
          <mxGeometry relative="1" as="geometry" />
        </mxCell>
        <mxCell id="1_bBR38_FuNowLDQo-79-7" value="4.5" style="swimlane;html=1;fontStyle=0;childLayout=stackLayout;horizontal=1;startSize=26;fillColor=#e0e0e0;horizontalStack=0;resizeParent=1;resizeLast=0;collapsible=1;marginBottom=0;swimlaneFillColor=#ffffff;align=center;rounded=1;shadow=0;comic=0;labelBackgroundColor=none;strokeWidth=1;fontFamily=Verdana;fontSize=12" vertex="1" parent="1">
          <mxGeometry x="980" y="680" width="140" height="52" as="geometry" />
        </mxCell>
        <mxCell id="1_bBR38_FuNowLDQo-79-8" value="失效安全保护" style="text;html=1;strokeColor=none;fillColor=none;spacingLeft=4;spacingRight=4;whiteSpace=wrap;overflow=hidden;rotatable=0;points=[[0,0.5],[1,0.5]];portConstraint=eastwest;align=center;" vertex="1" parent="1_bBR38_FuNowLDQo-79-7">
          <mxGeometry y="26" width="140" height="26" as="geometry" />
        </mxCell>
        <mxCell id="1_bBR38_FuNowLDQo-79-12" style="edgeStyle=orthogonalEdgeStyle;rounded=0;orthogonalLoop=1;jettySize=auto;html=1;exitX=0;exitY=0.5;exitDx=0;exitDy=0;entryX=0.5;entryY=0;entryDx=0;entryDy=0;" edge="1" parent="1" source="CKitpAn34eTJPyH5BuWE-17" target="1_bBR38_FuNowLDQo-79-1">
          <mxGeometry relative="1" as="geometry" />
        </mxCell>
        <mxCell id="1_bBR38_FuNowLDQo-79-13" style="edgeStyle=orthogonalEdgeStyle;rounded=0;orthogonalLoop=1;jettySize=auto;html=1;exitX=0;exitY=0.5;exitDx=0;exitDy=0;entryX=0.75;entryY=0;entryDx=0;entryDy=0;" edge="1" parent="1" source="CKitpAn34eTJPyH5BuWE-27" target="1_bBR38_FuNowLDQo-79-1">
          <mxGeometry relative="1" as="geometry" />
        </mxCell>
        <mxCell id="SrfplcpbmUxofHk9KIb3-1" style="edgeStyle=orthogonalEdgeStyle;rounded=0;orthogonalLoop=1;jettySize=auto;html=1;exitX=0.5;exitY=0;exitDx=0;exitDy=0;entryX=0.5;entryY=1;entryDx=0;entryDy=0;" edge="1" parent="1" source="1_bBR38_FuNowLDQo-79-14" target="1_bBR38_FuNowLDQo-79-15">
          <mxGeometry relative="1" as="geometry" />
        </mxCell>
        <mxCell id="1_bBR38_FuNowLDQo-79-14" value="信号系统&lt;br&gt;SCS" style="rounded=0;whiteSpace=wrap;html=1;" vertex="1" parent="1">
          <mxGeometry x="630" y="750" width="120" height="60" as="geometry" />
        </mxCell>
        <mxCell id="SrfplcpbmUxofHk9KIb3-2" style="edgeStyle=orthogonalEdgeStyle;rounded=0;orthogonalLoop=1;jettySize=auto;html=1;exitX=0;exitY=0.5;exitDx=0;exitDy=0;entryX=0.506;entryY=0.981;entryDx=0;entryDy=0;entryPerimeter=0;" edge="1" parent="1" source="1_bBR38_FuNowLDQo-79-15" target="1_bBR38_FuNowLDQo-79-4">
          <mxGeometry relative="1" as="geometry" />
        </mxCell>
        <mxCell id="SrfplcpbmUxofHk9KIb3-3" style="edgeStyle=orthogonalEdgeStyle;rounded=0;orthogonalLoop=1;jettySize=auto;html=1;exitX=1;exitY=0.5;exitDx=0;exitDy=0;entryX=0.619;entryY=1.024;entryDx=0;entryDy=0;entryPerimeter=0;" edge="1" parent="1" source="1_bBR38_FuNowLDQo-79-15" target="1_bBR38_FuNowLDQo-79-6">
          <mxGeometry relative="1" as="geometry" />
        </mxCell>
        <mxCell id="1_bBR38_FuNowLDQo-79-15" value="整车网络&lt;br&gt;VCMS" style="rounded=0;whiteSpace=wrap;html=1;" vertex="1" parent="1">
          <mxGeometry x="630" y="650" width="120" height="60" as="geometry" />
        </mxCell>
        <mxCell id="1_bBR38_FuNowLDQo-79-16" style="edgeStyle=orthogonalEdgeStyle;rounded=0;orthogonalLoop=1;jettySize=auto;html=1;exitX=1;exitY=0.5;exitDx=0;exitDy=0;entryX=0;entryY=0.25;entryDx=0;entryDy=0;" edge="1" parent="1" source="CKitpAn34eTJPyH5BuWE-30" target="1_bBR38_FuNowLDQo-79-1">
          <mxGeometry relative="1" as="geometry" />
        </mxCell>
        <mxCell id="1_bBR38_FuNowLDQo-79-17" style="edgeStyle=orthogonalEdgeStyle;rounded=0;orthogonalLoop=1;jettySize=auto;html=1;exitX=0;exitY=0.5;exitDx=0;exitDy=0;entryX=0;entryY=0.25;entryDx=0;entryDy=0;" edge="1" parent="1" source="CKitpAn34eTJPyH5BuWE-24" target="CKitpAn34eTJPyH5BuWE-30">
          <mxGeometry relative="1" as="geometry" />
        </mxCell>
        <mxCell id="1_bBR38_FuNowLDQo-79-18" style="edgeStyle=orthogonalEdgeStyle;rounded=0;orthogonalLoop=1;jettySize=auto;html=1;exitX=1;exitY=0.5;exitDx=0;exitDy=0;entryX=1;entryY=0.25;entryDx=0;entryDy=0;" edge="1" parent="1" source="CKitpAn34eTJPyH5BuWE-14" target="CKitpAn34eTJPyH5BuWE-30">
          <mxGeometry relative="1" as="geometry" />
        </mxCell>
        <mxCell id="1_bBR38_FuNowLDQo-79-21" style="edgeStyle=orthogonalEdgeStyle;rounded=0;orthogonalLoop=1;jettySize=auto;html=1;exitX=1;exitY=0.5;exitDx=0;exitDy=0;entryX=0.132;entryY=0.004;entryDx=0;entryDy=0;entryPerimeter=0;" edge="1" parent="1" source="CKitpAn34eTJPyH5BuWE-24" target="1_bBR38_FuNowLDQo-79-1">
          <mxGeometry relative="1" as="geometry" />
        </mxCell>
        <mxCell id="1_bBR38_FuNowLDQo-79-25" style="edgeStyle=orthogonalEdgeStyle;rounded=0;orthogonalLoop=1;jettySize=auto;html=1;exitX=0.5;exitY=0;exitDx=0;exitDy=0;" edge="1" parent="1" source="1_bBR38_FuNowLDQo-79-23" target="1_bBR38_FuNowLDQo-79-6">
          <mxGeometry relative="1" as="geometry" />
        </mxCell>
        <mxCell id="SrfplcpbmUxofHk9KIb3-7" style="edgeStyle=orthogonalEdgeStyle;rounded=0;orthogonalLoop=1;jettySize=auto;html=1;exitX=0;exitY=0.5;exitDx=0;exitDy=0;entryX=1;entryY=0.25;entryDx=0;entryDy=0;" edge="1" parent="1" source="1_bBR38_FuNowLDQo-79-23" target="1_bBR38_FuNowLDQo-79-3">
          <mxGeometry relative="1" as="geometry" />
        </mxCell>
        <mxCell id="1_bBR38_FuNowLDQo-79-23" value="矢量地图" style="shape=parallelogram;html=1;strokeWidth=2;perimeter=parallelogramPerimeter;whiteSpace=wrap;rounded=1;arcSize=12;size=0.23;" vertex="1" parent="1">
          <mxGeometry x="750" y="550" width="100" height="60" as="geometry" />
        </mxCell>
        <mxCell id="1_bBR38_FuNowLDQo-79-24" value="点云地图" style="shape=parallelogram;html=1;strokeWidth=2;perimeter=parallelogramPerimeter;whiteSpace=wrap;rounded=1;arcSize=12;size=0.23;" vertex="1" parent="1">
          <mxGeometry x="440" y="-50" width="100" height="60" as="geometry" />
        </mxCell>
        <mxCell id="SrfplcpbmUxofHk9KIb3-13" style="edgeStyle=orthogonalEdgeStyle;rounded=0;orthogonalLoop=1;jettySize=auto;html=1;exitX=0.5;exitY=0;exitDx=0;exitDy=0;entryX=0;entryY=0.5;entryDx=0;entryDy=0;" edge="1" parent="1" source="SrfplcpbmUxofHk9KIb3-11" target="1_bBR38_FuNowLDQo-79-8">
          <mxGeometry relative="1" as="geometry" />
        </mxCell>
        <mxCell id="SrfplcpbmUxofHk9KIb3-11" value="CPU/CRC" style="text;html=1;strokeColor=none;fillColor=none;align=center;verticalAlign=middle;whiteSpace=wrap;rounded=0;" vertex="1" parent="1">
          <mxGeometry x="900" y="840" width="60" height="30" as="geometry" />
        </mxCell>
        <mxCell id="SrfplcpbmUxofHk9KIb3-14" style="edgeStyle=orthogonalEdgeStyle;rounded=0;orthogonalLoop=1;jettySize=auto;html=1;exitX=0.5;exitY=0;exitDx=0;exitDy=0;entryX=0.643;entryY=1;entryDx=0;entryDy=0;entryPerimeter=0;" edge="1" parent="1" source="SrfplcpbmUxofHk9KIb3-12" target="1_bBR38_FuNowLDQo-79-8">
          <mxGeometry relative="1" as="geometry" />
        </mxCell>
        <mxCell id="SrfplcpbmUxofHk9KIb3-12" value="定位数据通路心跳&lt;br&gt;&lt;br&gt;3路-是否还需要CPUCRC" style="text;html=1;strokeColor=none;fillColor=none;align=center;verticalAlign=middle;whiteSpace=wrap;rounded=0;" vertex="1" parent="1">
          <mxGeometry x="1040" y="840" width="60" height="30" as="geometry" />
        </mxCell>
        <mxCell id="SrfplcpbmUxofHk9KIb3-18" style="edgeStyle=orthogonalEdgeStyle;rounded=0;orthogonalLoop=1;jettySize=auto;html=1;exitX=0;exitY=0.5;exitDx=0;exitDy=0;entryX=0;entryY=0.75;entryDx=0;entryDy=0;" edge="1" parent="1" source="CKitpAn34eTJPyH5BuWE-31" target="1_bBR38_FuNowLDQo-79-15">
          <mxGeometry relative="1" as="geometry" />
        </mxCell>
      </root>
    </mxGraphModel>
  </diagram>
  <diagram id="hqTO6wd56oHGDO2y9OdV" name="Page-3">
    <mxGraphModel dx="931" dy="430" grid="1" gridSize="10" guides="1" tooltips="1" connect="1" arrows="1" fold="1" page="1" pageScale="1" pageWidth="850" pageHeight="1100" math="0" shadow="0">
      <root>
        <mxCell id="0" />
        <mxCell id="1" parent="0" />
        <mxCell id="mijJ7f-f56LBN5DR3juP-1" value="Database" style="html=1;rounded=0;shadow=0;comic=0;labelBackgroundColor=none;strokeWidth=2;fontFamily=Verdana;fontSize=12;align=center;shape=mxgraph.ios7ui.horLines;" vertex="1" parent="1">
          <mxGeometry x="880" y="563" width="135" height="50" as="geometry" />
        </mxCell>
        <mxCell id="mijJ7f-f56LBN5DR3juP-2" value="Database" style="html=1;rounded=0;shadow=0;comic=0;labelBackgroundColor=none;strokeWidth=2;fontFamily=Verdana;fontSize=12;align=center;shape=mxgraph.ios7ui.horLines;" vertex="1" parent="1">
          <mxGeometry x="880" y="661" width="135" height="50" as="geometry" />
        </mxCell>
        <mxCell id="mijJ7f-f56LBN5DR3juP-3" value="Output" style="whiteSpace=wrap;html=1;rounded=0;shadow=0;comic=0;labelBackgroundColor=none;strokeWidth=1;fontFamily=Verdana;fontSize=12;align=center;" vertex="1" parent="1">
          <mxGeometry x="690" y="513" width="120" height="50" as="geometry" />
        </mxCell>
        <mxCell id="mijJ7f-f56LBN5DR3juP-4" style="edgeStyle=none;html=1;labelBackgroundColor=none;startFill=0;startSize=8;endFill=1;endSize=8;fontFamily=Verdana;fontSize=12;rounded=0;" edge="1" parent="1" source="mijJ7f-f56LBN5DR3juP-5" target="mijJ7f-f56LBN5DR3juP-9">
          <mxGeometry relative="1" as="geometry" />
        </mxCell>
        <mxCell id="mijJ7f-f56LBN5DR3juP-5" value="Input" style="whiteSpace=wrap;html=1;rounded=0;shadow=0;comic=0;labelBackgroundColor=none;strokeWidth=1;fontFamily=Verdana;fontSize=12;align=center;" vertex="1" parent="1">
          <mxGeometry x="30" y="511" width="120" height="50" as="geometry" />
        </mxCell>
        <mxCell id="mijJ7f-f56LBN5DR3juP-6" style="edgeStyle=none;html=1;labelBackgroundColor=none;startFill=0;startSize=8;endFill=1;endSize=8;fontFamily=Verdana;fontSize=12;rounded=0;" edge="1" parent="1" source="mijJ7f-f56LBN5DR3juP-9" target="mijJ7f-f56LBN5DR3juP-3">
          <mxGeometry relative="1" as="geometry" />
        </mxCell>
        <mxCell id="mijJ7f-f56LBN5DR3juP-7" style="edgeStyle=none;html=1;labelBackgroundColor=none;startFill=0;startSize=8;endFill=1;endSize=8;fontFamily=Verdana;fontSize=12;rounded=0;" edge="1" parent="1" source="mijJ7f-f56LBN5DR3juP-9" target="mijJ7f-f56LBN5DR3juP-15">
          <mxGeometry relative="1" as="geometry" />
        </mxCell>
        <mxCell id="mijJ7f-f56LBN5DR3juP-8" style="edgeStyle=orthogonalEdgeStyle;html=1;labelBackgroundColor=none;startFill=0;startSize=8;endFill=1;endSize=8;fontFamily=Verdana;fontSize=12;rounded=0;" edge="1" parent="1" source="mijJ7f-f56LBN5DR3juP-9" target="mijJ7f-f56LBN5DR3juP-1">
          <mxGeometry relative="1" as="geometry">
            <Array as="points">
              <mxPoint x="510" y="588" />
            </Array>
          </mxGeometry>
        </mxCell>
        <mxCell id="mijJ7f-f56LBN5DR3juP-9" value="1.5" style="swimlane;html=1;fontStyle=0;childLayout=stackLayout;horizontal=1;startSize=26;fillColor=#e0e0e0;horizontalStack=0;resizeParent=1;resizeLast=0;collapsible=1;marginBottom=0;swimlaneFillColor=#ffffff;align=center;rounded=1;shadow=0;comic=0;labelBackgroundColor=none;strokeWidth=1;fontFamily=Verdana;fontSize=12" vertex="1" parent="1">
          <mxGeometry x="400" y="510" width="140" height="52" as="geometry" />
        </mxCell>
        <mxCell id="mijJ7f-f56LBN5DR3juP-10" value="Row 1" style="text;html=1;strokeColor=none;fillColor=none;spacingLeft=4;spacingRight=4;whiteSpace=wrap;overflow=hidden;rotatable=0;points=[[0,0.5],[1,0.5]];portConstraint=eastwest;align=center;" vertex="1" parent="mijJ7f-f56LBN5DR3juP-9">
          <mxGeometry y="26" width="140" height="26" as="geometry" />
        </mxCell>
        <mxCell id="mijJ7f-f56LBN5DR3juP-11" style="edgeStyle=orthogonalEdgeStyle;html=1;labelBackgroundColor=none;startFill=0;startSize=8;endFill=1;endSize=8;fontFamily=Verdana;fontSize=12;rounded=0;" edge="1" parent="1" source="mijJ7f-f56LBN5DR3juP-12" target="mijJ7f-f56LBN5DR3juP-37">
          <mxGeometry relative="1" as="geometry">
            <Array as="points">
              <mxPoint x="948" y="922" />
            </Array>
          </mxGeometry>
        </mxCell>
        <mxCell id="mijJ7f-f56LBN5DR3juP-12" value="Database" style="html=1;rounded=0;shadow=0;comic=0;labelBackgroundColor=none;strokeWidth=2;fontFamily=Verdana;fontSize=12;align=center;shape=mxgraph.ios7ui.horLines;" vertex="1" parent="1">
          <mxGeometry x="880" y="836" width="135" height="50" as="geometry" />
        </mxCell>
        <mxCell id="mijJ7f-f56LBN5DR3juP-13" style="edgeStyle=none;html=1;labelBackgroundColor=none;startFill=0;startSize=8;endFill=1;endSize=8;fontFamily=Verdana;fontSize=12;rounded=0;" edge="1" parent="1" source="mijJ7f-f56LBN5DR3juP-15" target="mijJ7f-f56LBN5DR3juP-44">
          <mxGeometry relative="1" as="geometry">
            <mxPoint x="540.0001622472457" y="635.9302333127779" as="targetPoint" />
          </mxGeometry>
        </mxCell>
        <mxCell id="mijJ7f-f56LBN5DR3juP-14" style="edgeStyle=none;html=1;labelBackgroundColor=none;startFill=0;startSize=8;endFill=1;endSize=8;fontFamily=Verdana;fontSize=12;rounded=0;" edge="1" parent="1" source="mijJ7f-f56LBN5DR3juP-15" target="mijJ7f-f56LBN5DR3juP-41">
          <mxGeometry relative="1" as="geometry" />
        </mxCell>
        <mxCell id="mijJ7f-f56LBN5DR3juP-15" value="1.6" style="swimlane;html=1;fontStyle=0;childLayout=stackLayout;horizontal=1;startSize=26;fillColor=#e0e0e0;horizontalStack=0;resizeParent=1;resizeLast=0;collapsible=1;marginBottom=0;swimlaneFillColor=#ffffff;align=center;rounded=1;shadow=0;comic=0;labelBackgroundColor=none;strokeWidth=1;fontFamily=Verdana;fontSize=12" vertex="1" parent="1">
          <mxGeometry x="400" y="610" width="140" height="52" as="geometry" />
        </mxCell>
        <mxCell id="mijJ7f-f56LBN5DR3juP-16" value="Row 1" style="text;html=1;strokeColor=none;fillColor=none;spacingLeft=4;spacingRight=4;whiteSpace=wrap;overflow=hidden;rotatable=0;points=[[0,0.5],[1,0.5]];portConstraint=eastwest;align=center;" vertex="1" parent="mijJ7f-f56LBN5DR3juP-15">
          <mxGeometry y="26" width="140" height="26" as="geometry" />
        </mxCell>
        <mxCell id="mijJ7f-f56LBN5DR3juP-17" style="edgeStyle=none;html=1;labelBackgroundColor=none;startFill=0;startSize=8;endFill=1;endSize=8;fontFamily=Verdana;fontSize=12;rounded=0;" edge="1" parent="1" source="mijJ7f-f56LBN5DR3juP-18" target="mijJ7f-f56LBN5DR3juP-15">
          <mxGeometry relative="1" as="geometry" />
        </mxCell>
        <mxCell id="mijJ7f-f56LBN5DR3juP-18" value="1.2" style="swimlane;html=1;fontStyle=0;childLayout=stackLayout;horizontal=1;startSize=26;fillColor=#e0e0e0;horizontalStack=0;resizeParent=1;resizeLast=0;collapsible=1;marginBottom=0;swimlaneFillColor=#ffffff;align=center;rounded=1;shadow=0;comic=0;labelBackgroundColor=none;strokeWidth=1;fontFamily=Verdana;fontSize=12" vertex="1" parent="1">
          <mxGeometry x="220" y="609" width="140" height="52" as="geometry" />
        </mxCell>
        <mxCell id="mijJ7f-f56LBN5DR3juP-19" value="Row 1" style="text;html=1;strokeColor=none;fillColor=none;spacingLeft=4;spacingRight=4;whiteSpace=wrap;overflow=hidden;rotatable=0;points=[[0,0.5],[1,0.5]];portConstraint=eastwest;align=center;" vertex="1" parent="mijJ7f-f56LBN5DR3juP-18">
          <mxGeometry y="26" width="140" height="26" as="geometry" />
        </mxCell>
        <mxCell id="mijJ7f-f56LBN5DR3juP-20" style="edgeStyle=orthogonalEdgeStyle;html=1;labelBackgroundColor=none;startFill=0;startSize=8;endFill=1;endSize=8;fontFamily=Verdana;fontSize=12;rounded=0;" edge="1" parent="1" source="mijJ7f-f56LBN5DR3juP-21" target="mijJ7f-f56LBN5DR3juP-2">
          <mxGeometry relative="1" as="geometry">
            <Array as="points">
              <mxPoint x="780" y="686" />
            </Array>
          </mxGeometry>
        </mxCell>
        <mxCell id="mijJ7f-f56LBN5DR3juP-21" value="1.9" style="swimlane;html=1;fontStyle=0;childLayout=stackLayout;horizontal=1;startSize=26;fillColor=#e0e0e0;horizontalStack=0;resizeParent=1;resizeLast=0;collapsible=1;marginBottom=0;swimlaneFillColor=#ffffff;align=center;rounded=1;shadow=0;comic=0;labelBackgroundColor=none;strokeWidth=1;fontFamily=Verdana;fontSize=12" vertex="1" parent="1">
          <mxGeometry x="710" y="609" width="140" height="52" as="geometry" />
        </mxCell>
        <mxCell id="mijJ7f-f56LBN5DR3juP-22" value="Row 1" style="text;html=1;strokeColor=none;fillColor=none;spacingLeft=4;spacingRight=4;whiteSpace=wrap;overflow=hidden;rotatable=0;points=[[0,0.5],[1,0.5]];portConstraint=eastwest;align=center;" vertex="1" parent="mijJ7f-f56LBN5DR3juP-21">
          <mxGeometry y="26" width="140" height="26" as="geometry" />
        </mxCell>
        <mxCell id="mijJ7f-f56LBN5DR3juP-23" style="edgeStyle=none;html=1;labelBackgroundColor=none;startFill=0;startSize=8;endFill=1;endSize=8;fontFamily=Verdana;fontSize=12;rounded=0;" edge="1" parent="1" source="mijJ7f-f56LBN5DR3juP-24" target="mijJ7f-f56LBN5DR3juP-34">
          <mxGeometry relative="1" as="geometry" />
        </mxCell>
        <mxCell id="mijJ7f-f56LBN5DR3juP-24" value="1.3" style="swimlane;html=1;fontStyle=0;childLayout=stackLayout;horizontal=1;startSize=26;fillColor=#e0e0e0;horizontalStack=0;resizeParent=1;resizeLast=0;collapsible=1;marginBottom=0;swimlaneFillColor=#ffffff;align=center;rounded=1;shadow=0;comic=0;labelBackgroundColor=none;strokeWidth=1;fontFamily=Verdana;fontSize=12" vertex="1" parent="1">
          <mxGeometry x="220" y="761" width="140" height="52" as="geometry" />
        </mxCell>
        <mxCell id="mijJ7f-f56LBN5DR3juP-25" value="Row 1" style="text;html=1;strokeColor=none;fillColor=none;spacingLeft=4;spacingRight=4;whiteSpace=wrap;overflow=hidden;rotatable=0;points=[[0,0.5],[1,0.5]];portConstraint=eastwest;align=center;" vertex="1" parent="mijJ7f-f56LBN5DR3juP-24">
          <mxGeometry y="26" width="140" height="26" as="geometry" />
        </mxCell>
        <mxCell id="mijJ7f-f56LBN5DR3juP-26" style="edgeStyle=orthogonalEdgeStyle;html=1;labelBackgroundColor=none;startFill=0;startSize=8;endFill=1;endSize=8;fontFamily=Verdana;fontSize=12;rounded=0;" edge="1" parent="1" source="mijJ7f-f56LBN5DR3juP-27" target="mijJ7f-f56LBN5DR3juP-12">
          <mxGeometry relative="1" as="geometry">
            <Array as="points">
              <mxPoint x="620" y="856" />
            </Array>
          </mxGeometry>
        </mxCell>
        <mxCell id="mijJ7f-f56LBN5DR3juP-27" value="1.8" style="swimlane;html=1;fontStyle=0;childLayout=stackLayout;horizontal=1;startSize=26;fillColor=#e0e0e0;horizontalStack=0;resizeParent=1;resizeLast=0;collapsible=1;marginBottom=0;swimlaneFillColor=#ffffff;align=center;rounded=1;shadow=0;comic=0;labelBackgroundColor=none;strokeWidth=1;fontFamily=Verdana;fontSize=12" vertex="1" parent="1">
          <mxGeometry x="550" y="760" width="140" height="52" as="geometry" />
        </mxCell>
        <mxCell id="mijJ7f-f56LBN5DR3juP-28" value="Row 1" style="text;html=1;strokeColor=none;fillColor=none;spacingLeft=4;spacingRight=4;whiteSpace=wrap;overflow=hidden;rotatable=0;points=[[0,0.5],[1,0.5]];portConstraint=eastwest;align=center;" vertex="1" parent="mijJ7f-f56LBN5DR3juP-27">
          <mxGeometry y="26" width="140" height="26" as="geometry" />
        </mxCell>
        <mxCell id="mijJ7f-f56LBN5DR3juP-29" style="edgeStyle=none;html=1;labelBackgroundColor=none;startFill=0;startSize=8;endFill=1;endSize=8;fontFamily=Verdana;fontSize=12;rounded=0;" edge="1" parent="1" source="mijJ7f-f56LBN5DR3juP-30" target="mijJ7f-f56LBN5DR3juP-40">
          <mxGeometry relative="1" as="geometry" />
        </mxCell>
        <mxCell id="mijJ7f-f56LBN5DR3juP-30" value="1.1" style="swimlane;html=1;fontStyle=0;childLayout=stackLayout;horizontal=1;startSize=26;fillColor=#e0e0e0;horizontalStack=0;resizeParent=1;resizeLast=0;collapsible=1;marginBottom=0;swimlaneFillColor=#ffffff;align=center;rounded=1;shadow=0;comic=0;labelBackgroundColor=none;strokeWidth=1;fontFamily=Verdana;fontSize=12" vertex="1" parent="1">
          <mxGeometry x="20" y="896" width="140" height="52" as="geometry" />
        </mxCell>
        <mxCell id="mijJ7f-f56LBN5DR3juP-31" value="Row 1" style="text;html=1;strokeColor=none;fillColor=none;spacingLeft=4;spacingRight=4;whiteSpace=wrap;overflow=hidden;rotatable=0;points=[[0,0.5],[1,0.5]];portConstraint=eastwest;align=center;" vertex="1" parent="mijJ7f-f56LBN5DR3juP-30">
          <mxGeometry y="26" width="140" height="26" as="geometry" />
        </mxCell>
        <mxCell id="mijJ7f-f56LBN5DR3juP-32" style="edgeStyle=none;html=1;labelBackgroundColor=none;startFill=0;startSize=8;endFill=1;endSize=8;fontFamily=Verdana;fontSize=12;rounded=0;" edge="1" parent="1" source="mijJ7f-f56LBN5DR3juP-34" target="mijJ7f-f56LBN5DR3juP-37">
          <mxGeometry relative="1" as="geometry" />
        </mxCell>
        <mxCell id="mijJ7f-f56LBN5DR3juP-33" style="edgeStyle=none;html=1;labelBackgroundColor=none;startFill=0;startSize=8;endFill=1;endSize=8;fontFamily=Verdana;fontSize=12;rounded=0;" edge="1" parent="1" source="mijJ7f-f56LBN5DR3juP-34" target="mijJ7f-f56LBN5DR3juP-30">
          <mxGeometry relative="1" as="geometry" />
        </mxCell>
        <mxCell id="mijJ7f-f56LBN5DR3juP-34" value="1.4" style="swimlane;html=1;fontStyle=0;childLayout=stackLayout;horizontal=1;startSize=26;fillColor=#e0e0e0;horizontalStack=0;resizeParent=1;resizeLast=0;collapsible=1;marginBottom=0;swimlaneFillColor=#ffffff;align=center;rounded=1;shadow=0;comic=0;labelBackgroundColor=none;strokeWidth=1;fontFamily=Verdana;fontSize=12" vertex="1" parent="1">
          <mxGeometry x="220" y="896" width="140" height="52" as="geometry" />
        </mxCell>
        <mxCell id="mijJ7f-f56LBN5DR3juP-35" value="Row 1" style="text;html=1;strokeColor=none;fillColor=none;spacingLeft=4;spacingRight=4;whiteSpace=wrap;overflow=hidden;rotatable=0;points=[[0,0.5],[1,0.5]];portConstraint=eastwest;align=center;" vertex="1" parent="mijJ7f-f56LBN5DR3juP-34">
          <mxGeometry y="26" width="140" height="26" as="geometry" />
        </mxCell>
        <mxCell id="mijJ7f-f56LBN5DR3juP-36" style="edgeStyle=none;html=1;labelBackgroundColor=none;startFill=0;startSize=8;endFill=1;endSize=8;fontFamily=Verdana;fontSize=12;rounded=0;" edge="1" parent="1" source="mijJ7f-f56LBN5DR3juP-37" target="mijJ7f-f56LBN5DR3juP-41">
          <mxGeometry relative="1" as="geometry" />
        </mxCell>
        <mxCell id="mijJ7f-f56LBN5DR3juP-37" value="1.7" style="swimlane;html=1;fontStyle=0;childLayout=stackLayout;horizontal=1;startSize=26;fillColor=#e0e0e0;horizontalStack=0;resizeParent=1;resizeLast=0;collapsible=1;marginBottom=0;swimlaneFillColor=#ffffff;align=center;rounded=1;shadow=0;comic=0;labelBackgroundColor=none;strokeWidth=1;fontFamily=Verdana;fontSize=12" vertex="1" parent="1">
          <mxGeometry x="400" y="896" width="140" height="52" as="geometry" />
        </mxCell>
        <mxCell id="mijJ7f-f56LBN5DR3juP-38" value="Row 1" style="text;html=1;strokeColor=none;fillColor=none;spacingLeft=4;spacingRight=4;whiteSpace=wrap;overflow=hidden;rotatable=0;points=[[0,0.5],[1,0.5]];portConstraint=eastwest;align=center;" vertex="1" parent="mijJ7f-f56LBN5DR3juP-37">
          <mxGeometry y="26" width="140" height="26" as="geometry" />
        </mxCell>
        <mxCell id="mijJ7f-f56LBN5DR3juP-39" style="edgeStyle=orthogonalEdgeStyle;html=1;labelBackgroundColor=none;startFill=0;startSize=8;endFill=1;endSize=8;fontFamily=Verdana;fontSize=12;rounded=0;" edge="1" parent="1" source="mijJ7f-f56LBN5DR3juP-40" target="mijJ7f-f56LBN5DR3juP-18">
          <mxGeometry relative="1" as="geometry">
            <Array as="points">
              <mxPoint x="90" y="635" />
            </Array>
          </mxGeometry>
        </mxCell>
        <mxCell id="mijJ7f-f56LBN5DR3juP-40" value="Object" style="whiteSpace=wrap;html=1;rounded=0;shadow=0;comic=0;labelBackgroundColor=none;strokeWidth=1;fontFamily=Verdana;fontSize=12;align=center;" vertex="1" parent="1">
          <mxGeometry x="30" y="763" width="120" height="50" as="geometry" />
        </mxCell>
        <mxCell id="mijJ7f-f56LBN5DR3juP-41" value="Object" style="whiteSpace=wrap;html=1;rounded=0;shadow=0;comic=0;labelBackgroundColor=none;strokeWidth=1;fontFamily=Verdana;fontSize=12;align=center;" vertex="1" parent="1">
          <mxGeometry x="410" y="763" width="120" height="50" as="geometry" />
        </mxCell>
        <mxCell id="mijJ7f-f56LBN5DR3juP-42" style="edgeStyle=none;html=1;labelBackgroundColor=none;startFill=0;startSize=8;endFill=1;endSize=8;fontFamily=Verdana;fontSize=12;rounded=0;" edge="1" parent="1" source="mijJ7f-f56LBN5DR3juP-44" target="mijJ7f-f56LBN5DR3juP-27">
          <mxGeometry relative="1" as="geometry" />
        </mxCell>
        <mxCell id="mijJ7f-f56LBN5DR3juP-43" style="edgeStyle=none;html=1;labelBackgroundColor=none;startFill=0;startSize=8;endFill=1;endSize=8;fontFamily=Verdana;fontSize=12;rounded=0;" edge="1" parent="1" source="mijJ7f-f56LBN5DR3juP-44" target="mijJ7f-f56LBN5DR3juP-21">
          <mxGeometry relative="1" as="geometry" />
        </mxCell>
        <mxCell id="mijJ7f-f56LBN5DR3juP-44" value="" style="ellipse;whiteSpace=wrap;html=1;rounded=1;shadow=0;comic=0;labelBackgroundColor=none;strokeWidth=1;fontFamily=Verdana;fontSize=12;align=center;" vertex="1" parent="1">
          <mxGeometry x="605" y="621" width="30" height="30" as="geometry" />
        </mxCell>
      </root>
    </mxGraphModel>
  </diagram>
</mxfile>
